<svg width="17" height="16" viewBox="0 0 17 16" fill="none" xmlns="http://www.w3.org/2000/svg">
<g clip-path="url(#clip0_790_473)">
<path d="M13.8333 3.33325C14.0101 3.33325 14.1797 3.40349 14.3047 3.52851C14.4298 3.65354 14.5 3.82311 14.5 3.99992C14.5 4.17673 14.4298 4.3463 14.3047 4.47132C14.1797 4.59635 14.0101 4.66658 13.8333 4.66658H13.1667L13.1647 4.71392L12.5427 13.4279C12.5187 13.7643 12.3682 14.0791 12.1214 14.309C11.8746 14.5388 11.5499 14.6666 11.2127 14.6666H5.78667C5.44943 14.6666 5.12471 14.5388 4.87792 14.309C4.63114 14.0791 4.48061 13.7643 4.45667 13.4279L3.83467 4.71459C3.83366 4.69861 3.83321 4.6826 3.83333 4.66658H3.16667C2.98986 4.66658 2.82029 4.59635 2.69526 4.47132C2.57024 4.3463 2.5 4.17673 2.5 3.99992C2.5 3.82311 2.57024 3.65354 2.69526 3.52851C2.82029 3.40349 2.98986 3.33325 3.16667 3.33325H13.8333ZM11.8313 4.66658H5.16867L5.78733 13.3333H11.2127L11.8313 4.66658ZM9.83333 1.33325C10.0101 1.33325 10.1797 1.40349 10.3047 1.52851C10.4298 1.65354 10.5 1.82311 10.5 1.99992C10.5 2.17673 10.4298 2.3463 10.3047 2.47132C10.1797 2.59635 10.0101 2.66659 9.83333 2.66659H7.16667C6.98986 2.66659 6.82029 2.59635 6.69526 2.47132C6.57024 2.3463 6.5 2.17673 6.5 1.99992C6.5 1.82311 6.57024 1.65354 6.69526 1.52851C6.82029 1.40349 6.98986 1.33325 7.16667 1.33325H9.83333Z" fill="#4E7690"/>
<path fill-rule="evenodd" clip-rule="evenodd" d="M8.14645 6.14645C8.34171 5.95118 8.65829 5.95118 8.85355 6.14645L10.3536 7.64645C10.5488 7.84171 10.5488 8.15829 10.3536 8.35355C10.1583 8.54882 9.84171 8.54882 9.64645 8.35355L9 7.70711V12C9 12.2761 8.77614 12.5 8.5 12.5C8.22386 12.5 8 12.2761 8 12V7.70711L7.35355 8.35355C7.15829 8.54882 6.84171 8.54882 6.64645 8.35355C6.45118 8.15829 6.45118 7.84171 6.64645 7.64645L8.14645 6.14645Z" fill="#4E7690"/>
</g>
<defs>
<clipPath id="clip0_790_473">
<rect width="16" height="16" fill="white" transform="translate(0.5)"/>
</clipPath>
</defs>
</svg>
