<svg width="321" height="277" viewBox="0 0 321 277" fill="none" xmlns="http://www.w3.org/2000/svg">
<g clip-path="url(#clip0_117_213)">
<path opacity="0.24" d="M317.376 169.679C316.839 169.092 316.253 168.551 315.623 168.064C316.792 121.934 313.122 26.1309 312.964 21.9865L312.116 0L198.861 60.3231L116.26 12.6195L109.41 16.4141C99.7313 21.7767 14.7283 68.874 10.5962 71.2814L3.65869 75.2975L3.77558 84.2273C4.10872 111.973 5.76273 274.832 5.78026 277.006C5.78026 277.006 38.6792 257.642 43.951 254.483C52.7178 249.208 64.8862 241.84 80.0411 232.59C97.9195 221.666 116.049 210.516 125.009 205.002C157.686 222.826 192.221 241.98 197.663 245.559C200.235 247.743 203.507 248.936 206.885 248.922C210.976 248.922 213.636 248.922 262.853 225.094C286.465 213.669 310.053 201.889 312.8 200.508C317.382 198.176 320.275 193.688 320.743 188.133C320.848 186.862 320.842 185.621 320.842 184.303C320.842 182.986 320.842 181.552 320.947 180.287C321.122 178.369 320.894 176.435 320.279 174.609C319.665 172.783 318.676 171.104 317.376 169.679ZM207.75 229.815C203.817 227.262 193.928 221.562 167.382 206.896C147.294 195.821 127.136 184.834 126.938 184.746L124.401 183.365L121.946 184.88C89.1819 205.077 41.9346 234.012 24.4536 244.277C24.0971 213.354 22.8054 105.829 22.5716 86.0109C36.5986 78.1653 102.437 41.6765 116.084 34.1339L198.492 81.7675L294.483 30.6249C295.459 58.2422 298.463 150.216 296.272 180.701C296.19 181.876 296.522 183.043 297.21 184C297.898 184.958 298.9 185.646 300.041 185.947C273.794 199.068 218.808 225.986 207.75 229.815Z" fill="#595BD4"/>
<path d="M17.5686 78.4859C21.6598 76.0844 116.113 23.7702 116.113 23.7702C116.113 23.7702 200.152 69.5502 200.205 66.2744C200.257 62.9985 300.778 18.9264 299.159 17.8655C297.768 16.9387 303.834 139.864 301.228 176.411C301.169 177.21 307.254 173.677 307.189 174.388C306.768 178.917 307.376 183.173 306.57 183.581C301.012 186.378 208.218 232.671 206.628 230.433C205.038 228.195 124.588 184.443 124.588 184.443C124.588 184.443 19.585 249.15 19.585 247.926C19.585 246.701 17.5686 78.4859 17.5686 78.4859Z" fill="#4E7690"/>
<path d="M15.1901 254.891L15.1609 250.467C15.1609 248.59 13.162 82.7468 13.1445 81.0739L13.127 78.4859L15.3479 77.1918C19.4391 74.7962 110.123 24.5629 113.98 22.4004L116.172 21.188L198.685 68.8682L303.303 13.2024L303.601 20.2262C303.782 24.9418 307.791 130.24 306.032 172.506C306.376 172.434 306.727 172.397 307.078 172.395C307.713 172.393 308.341 172.522 308.922 172.775C309.504 173.028 310.026 173.399 310.457 173.864C310.881 174.324 311.204 174.868 311.405 175.46C311.606 176.053 311.681 176.68 311.625 177.303C311.468 179.011 311.474 180.707 311.479 182.205C311.479 185.475 311.479 188.564 308.592 190.027C305.851 191.409 282.292 203.166 258.785 214.549C211.508 237.428 208.633 237.434 206.915 237.434C206.29 237.444 205.67 237.33 205.091 237.098C204.512 236.865 203.985 236.52 203.542 236.081C199.27 232.928 154.074 208.021 124.746 192.05C117.972 196.223 96.5345 209.42 75.161 222.477C60.0587 231.71 47.9371 239.06 39.141 244.335C21.5373 254.891 21.21 254.891 19.6436 254.891H15.1901Z" fill="url(#paint0_linear_117_213)"/>
<path opacity="0.13" d="M208.545 111.675L300.042 65.2426L299.141 18.8098L210.217 66.1753L208.545 111.675ZM19.2754 133.854L114.711 90.7207V131.977L19.2754 184.77V133.854Z" fill="#53D86A"/>
<path d="M313.688 169.311C312.816 168.357 311.745 167.605 310.55 167.108C311.935 122.313 308.154 23.0532 307.978 18.4717L307.435 4.39497L294.974 11.0282L215.138 53.5791L198.744 62.3224L193.209 59.1223L173.443 47.6686L150.754 34.5594L120.532 17.0728L116.19 14.5605L111.806 16.9912C107.943 19.1304 17.2414 69.3811 13.0859 71.7826L8.64404 74.4056L8.70833 79.5351C8.70833 81.2079 10.7072 246.544 10.7247 248.911C10.7371 251.248 11.6764 253.486 13.3377 255.135C14.9989 256.784 17.247 257.711 19.5909 257.712C22.3203 257.712 24.0269 256.727 29.0941 253.795C31.9813 252.122 36.1076 249.68 41.3677 246.527C50.1754 241.246 62.3028 233.884 77.4227 224.651C96.8675 212.772 116.365 200.752 124.834 195.559C153.302 211.075 195.214 234.181 200.684 237.917C202.378 239.438 204.583 240.27 206.862 240.249C209.749 240.249 212.473 240.249 260.632 216.933C284.156 205.544 307.756 193.764 310.509 192.376C312.262 191.49 315.302 189.217 315.769 184.012C315.857 182.957 315.851 181.867 315.851 180.608C315.851 179.209 315.851 177.618 315.98 176.125C316.092 174.893 315.947 173.651 315.553 172.478C315.158 171.305 314.523 170.227 313.688 169.311ZM306.552 184.507C301.129 187.235 212.537 231.441 206.862 231.441C206.815 231.448 206.767 231.444 206.721 231.43C206.676 231.416 206.634 231.392 206.599 231.36C204.997 229.122 124.559 185.37 124.559 185.37C124.559 185.37 21.5313 248.905 19.5909 248.905C19.5909 247.681 17.5745 79.4593 17.5745 79.4593C21.6657 77.0578 116.119 24.7436 116.119 24.7436L144.869 41.3559L164.045 52.4308L193.788 69.6201L198.592 72.3947L215.336 63.4765L299.165 18.8273C299.165 18.8273 303.84 140.826 301.234 177.373C301.234 177.454 301.286 177.489 301.397 177.489C302.262 177.489 306.283 175.257 307.067 175.257C307.154 175.257 307.201 175.286 307.195 175.35C306.751 179.844 307.359 184.099 306.552 184.507Z" fill="#53D86A"/>
<path d="M215.138 53.5557L198.744 62.2991L193.209 59.099C194.479 62.5402 194.655 66.2883 193.712 69.8327C192.769 73.377 190.753 76.5452 187.94 78.9056C185.126 81.2659 181.65 82.7036 177.988 83.0227C174.325 83.3419 170.652 82.5269 167.47 80.6889C164.289 78.8509 161.753 76.0792 160.208 72.7516C158.663 69.424 158.184 65.7022 158.837 62.0935C159.49 58.4848 161.243 55.1646 163.857 52.5854C166.47 50.0061 169.818 48.2933 173.443 47.6802L150.754 34.5711C148.517 36.5815 146.532 38.8559 144.845 41.3442C142.885 44.2467 141.265 47.3643 140.018 50.6355C134.08 65.9713 135.845 83.2247 144.273 97.3598L168.113 147.121C168.113 147.121 211.841 99.6855 215.313 63.459C215.654 60.1629 215.596 56.8378 215.138 53.5557Z" fill="url(#paint1_linear_117_213)"/>
<path d="M2.36114 198.427C-0.157858 202.612 -1.41444 208.808 2.48388 211.752C4.07359 212.946 6.24192 213.325 7.56863 214.812C9.55578 217.038 8.66156 220.571 7.19458 223.176C5.7276 225.782 3.74045 228.346 3.81643 231.337C3.95086 236.583 9.98827 239.328 15.0204 240.843C16.4523 241.275 17.9427 241.712 19.4214 241.426C20.9 241.141 22.1742 240.161 23.308 239.147C27.7388 235.164 31.2452 230.264 33.5827 224.791C34.5354 222.547 35.2835 219.994 34.4009 217.72C33.6996 215.907 32.0631 214.631 30.8942 213.115C29.4366 211.225 28.552 208.958 28.3448 206.583C28.1377 204.207 28.6167 201.822 29.7253 199.709C30.8942 197.547 32.706 195.786 33.9918 193.682C39.024 185.475 26.5576 182.444 23.7697 176.679C21.6715 172.342 23.495 168.472 16.2361 167.079C9.83632 165.849 7.0134 168.828 6.32959 174.977C5.85618 179.285 8.38687 183.138 7.90762 187.369C7.42836 191.601 4.4418 194.964 2.36114 198.427Z" fill="#4E7690"/>
<path d="M18.5564 242.563L19.7253 262.043C19.8597 264.334 20.6663 267.289 22.969 267.365C25.114 267.417 26.166 264.759 26.2946 262.62C26.6978 255.882 24.062 249.394 22.069 242.948C20.076 236.501 18.761 229.291 21.6248 223.182C22.4313 221.468 23.5652 219.521 22.706 217.831C21.8253 221.112 20.4202 224.229 18.5447 227.064L15.6224 208.563C15.301 206.511 14.7925 204.191 12.9749 203.177L15.3127 223.036L12.4781 222.517C10.9936 222.249 16.3296 230.491 16.505 230.905C18.0596 234.548 18.3226 238.658 18.5564 242.563ZM274.577 197.465C275.337 190.301 283.145 186.209 286.652 179.908C287.277 178.801 287.78 177.519 287.511 176.271C287.154 174.627 285.611 173.572 284.355 172.459C278.51 167.271 277.727 157.362 282.695 151.329C286.05 147.249 291.625 144.684 292.981 139.596C293.712 136.862 293.01 133.983 292.736 131.167C292.385 127.606 292.736 123.864 294.559 120.763C296.383 117.662 299.767 115.354 303.326 115.558C308.908 115.872 312.59 121.969 312.759 127.518C312.929 133.067 310.696 138.413 309.428 143.839C308.972 145.78 308.645 147.826 309.153 149.75C309.913 152.664 312.356 154.704 314.226 157.024C318.645 162.515 319.562 171.596 314.092 176.038C311.023 178.533 306.061 179.827 305.641 183.755C305.377 186.169 307.183 188.349 309.217 189.678C311.251 191.007 313.618 191.823 315.524 193.332C320.316 197.127 320.638 205.299 316.155 209.461C314.501 210.988 312.408 211.961 310.696 213.419C308.984 214.876 307.628 217.137 308.235 219.294C308.469 220.122 308.966 220.85 309.165 221.684C309.597 223.503 308.452 225.403 306.897 226.434C305.342 227.466 303.437 227.833 301.596 228.183C297.423 228.953 292.368 229.833 288.738 226.982C285.109 224.132 286.722 221.602 285.383 217.971C282.706 210.662 273.618 206.529 274.577 197.465Z" fill="#4E7690"/>
<path d="M296.903 198.561C296.818 197.944 296.769 197.323 296.757 196.701C296.768 196.463 296.869 196.238 297.039 196.071C297.21 195.904 297.437 195.807 297.676 195.801C297.915 195.794 298.148 195.878 298.328 196.035C298.507 196.192 298.62 196.412 298.645 196.649L299.358 206.441C299.445 207.607 300.047 209.158 301.175 208.86C301.453 206.509 302.131 204.223 303.18 202.099C303.273 201.909 303.431 201.758 303.626 201.674C303.821 201.589 304.039 201.578 304.242 201.64C304.445 201.703 304.618 201.836 304.731 202.015C304.844 202.195 304.889 202.408 304.857 202.618C304.589 204.331 303.759 206.063 303.104 207.712C296.809 223.777 307.692 242.685 301.707 258.849C301.228 259.508 300.357 258.464 300.246 257.683C298.776 246.979 298.411 236.152 299.159 225.374C299.784 216.362 298.089 207.485 296.903 198.561Z" fill="#4E7690"/>
<path d="M18.5564 242.563L19.7253 262.043C19.8597 264.334 20.6663 267.289 22.969 267.365C25.114 267.417 26.166 264.759 26.2946 262.62C26.6978 255.882 24.062 249.394 22.069 242.948C20.076 236.501 18.761 229.291 21.6248 223.182C22.4313 221.468 23.5652 219.521 22.706 217.831C21.8253 221.112 20.4202 224.229 18.5447 227.064L15.6224 208.563C15.301 206.511 14.7925 204.191 12.9749 203.177L15.3127 223.036L12.4781 222.517C10.9936 222.249 16.3296 230.491 16.505 230.905C18.0596 234.548 18.3226 238.658 18.5564 242.563Z" fill="url(#paint2_linear_117_213)"/>
<path d="M296.903 198.561C296.818 197.944 296.769 197.323 296.757 196.701C296.768 196.463 296.869 196.238 297.039 196.071C297.21 195.904 297.437 195.807 297.676 195.801C297.915 195.794 298.148 195.878 298.328 196.035C298.507 196.192 298.62 196.412 298.645 196.649L299.358 206.441C299.445 207.607 300.047 209.158 301.175 208.86C301.471 206.34 302.23 203.896 303.414 201.65C303.499 201.485 303.64 201.354 303.812 201.282C303.984 201.209 304.175 201.198 304.354 201.251C304.533 201.304 304.688 201.418 304.791 201.573C304.895 201.728 304.941 201.914 304.922 202.099C304.752 203.976 303.823 205.899 303.11 207.712C296.815 223.777 307.698 242.685 301.713 258.849C301.234 259.508 300.363 258.464 300.252 257.683C298.78 246.979 298.413 236.152 299.159 225.374C299.784 216.362 298.089 207.485 296.903 198.561Z" fill="url(#paint3_linear_117_213)"/>
<path d="M206.377 45.4128C201.754 31.9714 191.567 20.063 169.907 20.7391C147.832 21.427 137.177 33.5627 132.116 46.5786C126.178 61.9144 127.943 79.1737 136.371 93.3029L168.113 147.109L196.955 96.5554C203.98 82.1406 212.391 62.8703 206.377 45.4128ZM168.527 79.0279C164.991 79.0279 161.534 77.9821 158.594 76.0226C155.654 74.063 153.362 71.278 152.009 68.0195C150.656 64.7611 150.303 61.1756 150.993 57.7167C151.683 54.2577 153.387 51.0807 155.888 48.5872C158.388 46.0938 161.575 44.3961 165.043 43.7088C168.512 43.0214 172.107 43.3754 175.373 44.7258C178.64 46.0763 181.432 48.3625 183.396 51.2955C185.36 54.2285 186.407 57.6764 186.406 61.2032C186.406 63.5445 185.943 65.8628 185.045 68.0258C184.146 70.1888 182.829 72.154 181.169 73.8093C179.509 75.4645 177.538 76.7774 175.369 77.6728C173.2 78.5682 170.875 79.0287 168.527 79.0279Z" fill="#4E7690"/>
<path opacity="0.2" d="M147.552 46.5786C153.437 35.4396 161.199 23.8459 179.112 21.2754C176.083 20.8057 173.017 20.6261 169.954 20.7392C147.879 21.427 137.224 33.5627 132.163 46.5786C126.225 61.9144 127.99 79.1737 136.418 93.3029L168.159 147.109C168.159 147.109 130.386 79.0279 147.552 46.5786Z" fill="#53D86A"/>
<path opacity="0.13" d="M166.061 61.2032C166.061 57.8363 167.016 54.538 168.815 51.6893C170.615 48.8405 173.186 46.5575 176.231 45.1039C173.505 43.8087 170.496 43.2229 167.482 43.401C164.469 43.5791 161.55 44.5153 158.997 46.1223C156.444 47.7293 154.341 49.9549 152.883 52.5914C151.426 55.2279 150.661 58.1896 150.661 61.2003C150.661 64.211 151.426 67.1727 152.883 69.8092C154.341 72.4458 156.444 74.6713 158.997 76.2783C161.55 77.8853 164.469 78.8215 167.482 78.9996C170.496 79.1777 173.505 78.5919 176.231 77.2968C173.186 75.8447 170.615 73.5628 168.815 70.7149C167.016 67.8671 166.061 64.5695 166.061 61.2032Z" fill="#53D86A"/>
<path d="M116.166 24.7552C115.779 24.7552 115.407 24.9088 115.133 25.1821C114.859 25.4553 114.705 25.826 114.705 26.2125V87.5556C105.745 91.3502 48.0072 115.89 43.1971 120.751C42.9673 121.033 42.851 121.389 42.8711 121.752C42.8912 122.114 43.0462 122.456 43.3057 122.71C43.5652 122.965 43.9106 123.114 44.2743 123.127C44.6379 123.141 44.9937 123.019 45.2719 122.785C48.615 119.405 87.9839 102.029 114.699 90.7265V162.597C114.699 162.983 114.853 163.354 115.127 163.627C115.401 163.9 115.773 164.054 116.16 164.054C116.548 164.054 116.92 163.9 117.194 163.627C117.468 163.354 117.622 162.983 117.622 162.597V26.2008C117.62 25.8169 117.466 25.4492 117.193 25.1783C116.92 24.9074 116.551 24.7552 116.166 24.7552Z" fill="url(#paint4_linear_117_213)"/>
<path d="M260.439 141.473C260.252 141.133 259.939 140.881 259.566 140.772C259.194 140.662 258.793 140.705 258.452 140.89L208.545 168.175V111.675C208.545 111.289 208.391 110.918 208.117 110.645C207.843 110.372 207.472 110.218 207.084 110.218C206.696 110.218 206.325 110.372 206.051 110.645C205.777 110.918 205.623 111.289 205.623 111.675V168.105C200.842 165.313 188.972 158.4 177.183 151.592C168.265 146.445 161.146 142.37 156.014 139.479C152.964 137.76 150.591 136.448 148.954 135.568C146.079 134.023 145.108 133.505 144.278 134.7C144.091 134.968 143.583 135.935 144.828 136.915C145.111 137.133 145.464 137.243 145.821 137.223C151.274 139.922 183.589 158.615 205.611 171.48V229.611C205.611 229.998 205.765 230.368 206.039 230.642C206.313 230.915 206.685 231.068 207.072 231.068C207.46 231.068 207.831 230.915 208.105 230.642C208.379 230.368 208.533 229.998 208.533 229.611V171.509L259.849 143.455C260.19 143.27 260.444 142.957 260.555 142.585C260.665 142.214 260.624 141.814 260.439 141.473Z" fill="url(#paint5_linear_117_213)"/>
<path opacity="0.24" d="M17.5513 79.436L114.933 25.4372L114.711 49.3181L17.8026 100.309L17.5513 79.436Z" fill="#53D86A"/>
<path opacity="0.13" d="M117.633 133.854L205.623 179.518V229.611L121.964 184.863L117.633 133.854Z" fill="#53D86A"/>
<path d="M208.434 123.223C208.434 123.223 210.094 124.155 213.601 123.835" stroke="#FE9526" stroke-width="5" stroke-miterlimit="10"/>
<path d="M223.782 120.559C227.427 118.655 230.883 116.411 234.103 113.856C251.877 100.053 278.738 97.2257 286.009 104.133C326.143 142.347 246.961 209.741 208.434 211.839C188.066 212.946 175.564 175.962 170.591 157.415" stroke="#FE9526" stroke-width="5" stroke-miterlimit="10" stroke-dasharray="18.4 18.4"/>
<path d="M169.264 152.227C168.493 149.039 168.095 147.109 168.095 147.109L165.448 142.604" stroke="#FE9526" stroke-width="5" stroke-miterlimit="10"/>
<path d="M160.217 133.726L154.998 124.872C141.876 102.635 117.627 111.675 117.627 111.675C117.627 111.675 92.4199 129.588 87.9722 162.346C83.5245 195.104 51.6016 207.403 42.7764 200.525C33.9511 193.647 19.3514 116.782 50.4561 94.4045C70.8828 79.6983 88.3346 86.862 97.9021 93.5069" stroke="#FE9526" stroke-width="5" stroke-miterlimit="10" stroke-dasharray="17.64 17.64"/>
<path d="M101.964 96.6545C103.303 97.7852 104.562 99.0063 105.734 100.309" stroke="#FE9526" stroke-width="5" stroke-miterlimit="10"/>
</g>
<defs>
<linearGradient id="paint0_linear_117_213" x1="162.899" y1="48.4904" x2="159.975" y2="480.778" gradientUnits="userSpaceOnUse">
<stop stop-opacity="0"/>
<stop offset="0.97"/>
</linearGradient>
<linearGradient id="paint1_linear_117_213" x1="182.438" y1="33.2712" x2="145.695" y2="210.508" gradientUnits="userSpaceOnUse">
<stop stop-opacity="0"/>
<stop offset="0.97"/>
</linearGradient>
<linearGradient id="paint2_linear_117_213" x1="14.9269" y1="191.187" x2="25.0773" y2="304.103" gradientUnits="userSpaceOnUse">
<stop stop-opacity="0"/>
<stop offset="0.97"/>
</linearGradient>
<linearGradient id="paint3_linear_117_213" x1="300.334" y1="178.41" x2="307.536" y2="477.106" gradientUnits="userSpaceOnUse">
<stop stop-opacity="0"/>
<stop offset="0.97"/>
</linearGradient>
<linearGradient id="paint4_linear_117_213" x1="83.3199" y1="235.335" x2="78.7391" y2="-2.96737" gradientUnits="userSpaceOnUse">
<stop stop-opacity="0"/>
<stop offset="0.83" stop-opacity="0.47"/>
<stop offset="0.97"/>
</linearGradient>
<linearGradient id="paint5_linear_117_213" x1="204.033" y1="71.3455" x2="196.174" y2="383.495" gradientUnits="userSpaceOnUse">
<stop stop-opacity="0"/>
<stop offset="0.9" stop-opacity="0.83"/>
<stop offset="0.97"/>
</linearGradient>
<clipPath id="clip0_117_213">
<rect width="321" height="277" fill="white"/>
</clipPath>
</defs>
</svg>
