<svg width="22" height="17" viewBox="0 0 22 17" fill="none" xmlns="http://www.w3.org/2000/svg">
<path d="M8.41 16H5.5C4 16 2.68 15.5 1.61 14.43C0.54 13.38 0 12.09 0 10.58C0 9.28 0.39 8.12 1.17 7.1C1.93062 6.10279 3.02328 5.41101 4.25 5.15C4.67 3.62 5.5 2.38 6.75 1.43C8 0.5 9.42 0 11 0C12.95 0 14.61 0.68 15.96 2.04C17.32 3.39 18 5.05 18 7C19.15 7.13 20.11 7.63 20.86 8.5C21.5 9.23 21.86 10.06 21.96 11H17C16.5337 10.3796 15.9297 9.87599 15.2355 9.52892C14.5414 9.18184 13.7761 9.00077 13 9C10.2 9 8 11.2 8 14C8 14.72 8.15 15.39 8.41 16ZM22 13V15H20V17H18V15H15.8C15.4 16.2 14.3 17 13 17C11.3 17 10 15.7 10 14C10 12.3 11.3 11 13 11C14.3 11 15.4 11.8 15.8 13H22ZM14 14C14 13.5 13.6 13 13 13C12.4 13 12 13.5 12 14C12 14.5 12.4 15 13 15C13.6 15 14 14.5 14 14Z" fill="#4E7690"/>
</svg>
