<svg width="21" height="17" viewBox="0 0 21 17" fill="none" xmlns="http://www.w3.org/2000/svg">
<path d="M2 16C1.45 16 0.979333 15.8043 0.588 15.413C0.196667 15.0217 0.000666667 14.5507 0 14V2C0 1.45 0.196 0.979333 0.588 0.588C0.98 0.196666 1.45067 0.000666667 2 0L4 4H7L5 0H7L9 4H12L10 0H12L14 4H17L15 0H18C18.55 0 19.021 0.196 19.413 0.588C19.805 0.98 20.0007 1.45067 20 2V6.275C19.3667 5.99167 18.6917 5.90833 17.975 6.025C17.2583 6.14167 16.6333 6.46667 16.1 7L10 13.1V16H2ZM12 17V13.925L17.525 8.425C17.675 8.275 17.8417 8.16667 18.025 8.1C18.2083 8.03333 18.3917 8 18.575 8C18.775 8 18.9667 8.03767 19.15 8.113C19.3333 8.18833 19.5 8.30067 19.65 8.45L20.575 9.375C20.7083 9.525 20.8127 9.69167 20.888 9.875C20.9633 10.0583 21.0007 10.2417 21 10.425C21 10.6083 20.9667 10.796 20.9 10.988C20.8333 11.18 20.725 11.3507 20.575 11.5L15.075 17H12ZM18.575 11.4L19.5 10.425L18.575 9.5L17.625 10.45L18.575 11.4Z" fill="white"/>
</svg>
