<svg width="22" height="17" viewBox="0 0 22 17" fill="none" xmlns="http://www.w3.org/2000/svg">
<path d="M8.1881 15.85H5.5C4.03659 15.85 2.75575 15.3636 1.71607 14.3239L1.71506 14.3229C0.673998 13.3013 0.15 12.05 0.15 10.58C0.15 9.31249 0.529427 8.18461 1.28915 7.19112L1.28927 7.19097C2.02814 6.22226 3.08956 5.55026 4.28122 5.29672L4.37049 5.27772L4.39465 5.18971C4.80604 3.69107 5.61725 2.47948 6.84016 1.54988C8.06554 0.638383 9.45424 0.15 11 0.15C12.911 0.15 14.5324 0.814762 15.8535 2.14568L15.8543 2.14646C17.1852 3.46758 17.85 5.08895 17.85 7V7.134L17.9832 7.14905C19.0964 7.2749 20.0216 7.75714 20.7464 8.59794L20.7472 8.59888C21.3289 9.26238 21.6706 10.0089 21.7902 10.85H20.0803C19.9643 10.3748 19.737 9.9755 19.3759 9.62374C18.8667 9.1046 18.238 8.85 17.5 8.85H16.15V7C16.15 5.57946 15.6337 4.36213 14.6472 3.35503L14.6472 3.35502L14.6455 3.35339C13.648 2.36612 12.4303 1.85 11 1.85C9.57946 1.85 8.36213 2.3663 7.35503 3.35285L7.35501 3.35282L7.35285 3.35503C6.4012 4.3265 5.88712 5.49359 5.85194 6.85H5.5C4.49059 6.85 3.63224 7.20557 2.92393 7.92393C2.20558 8.63224 1.85 9.49059 1.85 10.5C1.85 11.5097 2.20569 12.3774 2.92317 13.1053L2.92472 13.1068C3.63353 13.8052 4.49165 14.15 5.5 14.15H7.85212C7.86918 14.7539 7.98888 15.3227 8.1881 15.85ZM15.8 13.15H21.85V14.85H20H19.85V15V16.85H18.15V15V14.85H18H15.8H15.6919L15.6577 14.9526C15.2783 16.0909 14.2359 16.85 13 16.85C11.3828 16.85 10.15 15.6172 10.15 14C10.15 12.3828 11.3828 11.15 13 11.15C14.2359 11.15 15.2783 11.9091 15.6577 13.0474L15.6919 13.15H15.8ZM14.15 14C14.15 13.4271 13.6924 12.85 13 12.85C12.3076 12.85 11.85 13.4271 11.85 14C11.85 14.5729 12.3076 15.15 13 15.15C13.6924 15.15 14.15 14.5729 14.15 14Z" fill="#71829B" stroke="white" stroke-width="0.3"/>
</svg>
